<?xml version="1.0" encoding="UTF-8"?>
<svg xmlns="http://www.w3.org/2000/svg" xmlns:xlink="http://www.w3.org/1999/xlink" width="150px" height="114px" viewBox="0 0 150 114" version="1.1">
<g id="surface1">
<path style=" stroke:none;fill-rule:nonzero;fill:rgb(0%,0%,0%);fill-opacity:1;" d="M 27.773438 0.0820312 C 27.773438 0.140625 28.113281 0.503906 28.523438 0.890625 C 29.378906 1.710938 29.90625 2.648438 30.1875 3.855469 C 30.480469 5.121094 30.363281 7.980469 29.953125 9.339844 C 29.367188 11.332031 28.3125 12.984375 27.035156 13.980469 L 26.332031 14.53125 L 26.648438 14.636719 C 26.871094 14.707031 27.128906 14.683594 27.539062 14.554688 C 28.253906 14.320312 28.242188 14.320312 28.242188 14.625 C 28.242188 15.128906 28.792969 16.113281 29.261719 16.441406 L 29.707031 16.769531 L 29.671875 17.847656 C 29.613281 19.148438 29.789062 19.898438 30.539062 21.726562 C 31.992188 25.230469 32.214844 25.875 32.355469 26.882812 C 32.554688 28.207031 32.378906 29.53125 31.910156 30.410156 C 31.617188 30.9375 30.09375 32.507812 29.859375 32.507812 C 29.8125 32.507812 29.765625 32.566406 29.765625 32.636719 C 29.765625 32.789062 30.914062 32.71875 31.335938 32.554688 C 31.511719 32.484375 31.535156 32.507812 31.476562 32.71875 C 31.429688 32.859375 31.453125 33.082031 31.535156 33.222656 C 31.652344 33.457031 31.722656 33.46875 32.507812 33.410156 C 32.964844 33.363281 33.949219 33.175781 34.6875 32.988281 C 35.425781 32.800781 36.832031 32.4375 37.804688 32.179688 C 39.527344 31.722656 40.300781 31.417969 40.40625 31.113281 C 40.488281 30.867188 39.691406 30.949219 37.21875 31.441406 C 35.085938 31.851562 32.273438 32.238281 32.144531 32.109375 C 32.121094 32.085938 32.203125 31.875 32.34375 31.664062 C 32.683594 31.101562 33.011719 29.964844 33.164062 28.828125 C 33.269531 28.019531 33.257812 27.515625 33.058594 25.769531 C 32.660156 22.265625 32.097656 20.0625 31.054688 17.941406 C 30.539062 16.875 30.503906 16.769531 30.667969 16.523438 C 30.808594 16.3125 30.820312 16.183594 30.703125 15.855469 C 30.585938 15.480469 29.742188 14.578125 29.027344 14.0625 L 28.6875 13.828125 L 29.214844 13.054688 C 30.28125 11.519531 31.195312 9.339844 31.582031 7.429688 C 31.734375 6.714844 31.769531 6.046875 31.734375 4.898438 C 31.699219 3.457031 31.664062 3.292969 31.324219 2.566406 C 30.890625 1.652344 30.070312 0.75 29.296875 0.375 C 28.710938 0.09375 27.773438 -0.09375 27.773438 0.0820312 Z M 27.773438 0.0820312 "/>
<path style=" stroke:none;fill-rule:nonzero;fill:rgb(0%,0%,0%);fill-opacity:1;" d="M 26.34375 0.714844 C 26.226562 0.773438 26.132812 0.9375 26.132812 1.066406 C 26.132812 1.242188 26.074219 1.300781 25.933594 1.277344 C 25.804688 1.253906 25.734375 1.136719 25.757812 1.019531 C 25.804688 0.75 25.746094 0.761719 24.621094 1.347656 C 23.742188 1.792969 23.660156 1.863281 23.859375 1.980469 C 24.046875 2.097656 24.023438 2.109375 23.625 2.121094 C 23.203125 2.121094 23.074219 2.214844 22.03125 3.257812 C 19.78125 5.53125 18.761719 7.558594 16.710938 13.863281 C 16.21875 15.351562 15.820312 16.734375 15.820312 16.921875 C 15.832031 17.238281 15.84375 17.238281 16.417969 16.617188 C 17.144531 15.84375 17.683594 14.777344 18.363281 12.785156 C 19.136719 10.535156 20.71875 6.65625 20.742188 6.972656 C 20.742188 7.019531 20.683594 7.453125 20.613281 7.945312 C 20.53125 8.601562 20.53125 9.234375 20.625 10.21875 C 20.765625 11.589844 20.859375 11.894531 21.164062 11.894531 C 21.714844 11.894531 21.960938 10.5 21.972656 7.160156 L 21.984375 4.710938 L 22.441406 4.113281 C 23.414062 2.824219 24.890625 1.851562 26.425781 1.476562 C 26.882812 1.371094 27.375 1.195312 27.539062 1.078125 L 27.832031 0.890625 L 27.480469 0.75 C 27.058594 0.5625 26.613281 0.550781 26.34375 0.714844 Z M 26.34375 0.714844 "/>
<path style=" stroke:none;fill-rule:nonzero;fill:rgb(0%,0%,0%);fill-opacity:1;" d="M 24.316406 6.585938 C 23.765625 6.925781 22.886719 7.933594 22.804688 8.332031 C 22.640625 9.046875 23.121094 10.148438 23.894531 10.886719 L 24.246094 11.226562 L 24.375 10.910156 C 24.527344 10.488281 24.527344 9.621094 24.363281 8.578125 C 24.222656 7.6875 24.28125 7.546875 24.761719 7.535156 C 25.042969 7.535156 25.148438 7.863281 25.359375 9.386719 C 25.59375 11.097656 25.78125 11.496094 26.203125 11.214844 C 26.402344 11.097656 27.058594 9.574219 27.140625 9.070312 C 27.292969 8.121094 26.683594 7.066406 25.875 6.890625 C 25.675781 6.84375 25.347656 6.703125 25.148438 6.585938 C 24.703125 6.316406 24.75 6.316406 24.316406 6.585938 Z M 24.316406 6.585938 "/>
<path style=" stroke:none;fill-rule:nonzero;fill:rgb(0%,0%,0%);fill-opacity:1;" d="M 23.132812 11.320312 C 22.792969 11.695312 22.875 12.550781 23.378906 14.132812 L 23.824219 15.492188 L 24.046875 14.835938 C 24.304688 14.085938 24.445312 12.808594 24.328125 12.210938 C 24.246094 11.753906 23.742188 11.074219 23.507812 11.074219 C 23.425781 11.074219 23.261719 11.179688 23.132812 11.320312 Z M 23.132812 11.320312 "/>
<path style=" stroke:none;fill-rule:nonzero;fill:rgb(0%,0%,0%);fill-opacity:1;" d="M 26.578125 11.953125 C 25.945312 12.574219 25.324219 13.652344 24.984375 14.660156 C 24.679688 15.585938 24.550781 16.488281 24.726562 16.488281 C 24.796875 16.488281 25.488281 15.527344 26.261719 14.34375 C 27.398438 12.597656 27.65625 12.128906 27.632812 11.835938 C 27.574219 11.285156 27.222656 11.320312 26.578125 11.953125 Z M 26.578125 11.953125 "/>
<path style=" stroke:none;fill-rule:nonzero;fill:rgb(0%,0%,0%);fill-opacity:1;" d="M 13.628906 14.941406 C 11.050781 15.972656 9.480469 17.296875 5.835938 21.515625 C 3.492188 24.222656 2.636719 25.078125 2.320312 24.996094 C 1.992188 24.902344 0.878906 26.097656 1.066406 26.34375 C 1.171875 26.472656 1.171875 26.484375 1.019531 26.4375 C 0.878906 26.378906 0.761719 26.613281 0.46875 27.503906 C 0.257812 28.125 0.0703125 28.933594 0.0351562 29.308594 C -0.0234375 29.941406 0 30.023438 0.246094 30.199219 C 0.398438 30.304688 0.609375 30.386719 0.726562 30.386719 C 1.007812 30.386719 0.996094 30.433594 0.644531 30.785156 C 0.164062 31.265625 0.234375 31.828125 0.855469 32.449219 C 1.253906 32.847656 1.453125 32.964844 1.933594 33.023438 C 2.261719 33.070312 2.730469 33.164062 3 33.234375 C 3.445312 33.339844 3.480469 33.375 3.492188 33.773438 C 3.503906 34.054688 3.609375 34.289062 3.808594 34.511719 C 4.078125 34.769531 4.195312 34.804688 4.957031 34.792969 C 6.199219 34.757812 7.078125 34.511719 10.265625 33.269531 C 11.847656 32.660156 13.183594 32.15625 13.21875 32.15625 C 13.265625 32.15625 13.382812 32.332031 13.476562 32.53125 C 13.78125 33.199219 14.25 33.363281 15.832031 33.375 C 16.59375 33.386719 17.226562 33.398438 17.226562 33.410156 C 17.226562 33.433594 17.121094 33.609375 16.992188 33.820312 C 16.289062 34.96875 15.925781 37.183594 16.171875 38.777344 C 16.347656 39.949219 16.558594 40.570312 17.402344 42.339844 C 17.777344 43.113281 19.019531 45.949219 20.15625 48.632812 C 23.203125 55.769531 24.339844 58.21875 26.097656 61.324219 C 27.105469 63.105469 27.433594 64.007812 27.714844 65.707031 C 28.007812 67.417969 27.902344 70.78125 27.492188 73.722656 C 27.316406 74.929688 27.09375 76.535156 27 77.320312 C 26.765625 79.066406 26.730469 82.570312 26.941406 83.613281 C 27.175781 84.84375 27.433594 85.628906 27.667969 85.863281 C 27.855469 86.050781 27.867188 86.144531 27.761719 86.765625 C 27.679688 87.164062 27.65625 88.195312 27.691406 89.273438 C 27.75 91.265625 28.007812 92.695312 28.757812 95.179688 C 28.992188 95.941406 29.179688 96.644531 29.179688 96.726562 C 29.179688 97.136719 29.917969 97.429688 30.199219 97.148438 C 30.292969 97.054688 30.351562 97.089844 30.410156 97.265625 C 30.503906 97.570312 31.125 98.097656 31.394531 98.097656 C 31.957031 98.097656 32.179688 97.171875 31.78125 96.515625 C 31.605469 96.246094 31.570312 95.988281 31.617188 95.425781 C 31.652344 94.957031 31.605469 94.523438 31.488281 94.195312 L 31.324219 93.667969 L 31.652344 93.46875 C 32.132812 93.199219 32.132812 92.496094 31.640625 91.945312 C 31.171875 91.394531 30.398438 90.867188 30.1875 90.949219 C 29.894531 91.066406 29.824219 92.0625 30.046875 92.730469 C 30.1875 93.152344 30.210938 93.433594 30.140625 93.679688 L 30.035156 94.042969 L 29.894531 93.503906 C 28.851562 89.648438 28.699219 88.816406 28.628906 86.765625 C 28.59375 85.804688 28.535156 85.03125 28.511719 85.03125 C 28.476562 85.03125 28.359375 85.148438 28.242188 85.289062 C 28.042969 85.546875 28.03125 85.523438 27.949219 84.257812 C 27.820312 82.5 27.949219 80.085938 28.300781 77.554688 C 28.464844 76.382812 28.710938 74.578125 28.851562 73.546875 C 29.0625 72.058594 29.109375 71.109375 29.109375 69.011719 C 29.121094 64.359375 28.652344 62.847656 25.558594 57.292969 C 23.753906 54.070312 23.261719 53.015625 22.546875 50.777344 C 22.066406 49.289062 21.550781 48.070312 20.285156 45.46875 C 19.394531 43.617188 18.46875 41.542969 18.234375 40.875 C 17.390625 38.425781 17.238281 36.328125 17.789062 34.394531 L 18.105469 33.28125 L 18.820312 33.070312 C 19.570312 32.847656 19.828125 32.589844 19.476562 32.402344 C 19.371094 32.34375 18.246094 32.273438 16.992188 32.25 C 15.292969 32.203125 14.601562 32.144531 14.296875 32.003906 L 13.886719 31.828125 L 14.449219 31.734375 C 15.304688 31.605469 15.585938 31.21875 15.117188 30.796875 C 14.882812 30.585938 14.859375 30.585938 14.203125 30.785156 C 13.839844 30.902344 12.644531 31.382812 11.542969 31.851562 C 10.453125 32.320312 9.316406 32.800781 9.035156 32.90625 C 7.125 33.644531 4.570312 33.785156 4.570312 33.152344 C 4.570312 32.929688 4.101562 32.578125 3.550781 32.402344 C 2.988281 32.214844 1.617188 31.21875 1.347656 30.820312 C 1.171875 30.550781 1.183594 30.503906 1.464844 30.09375 C 1.628906 29.847656 1.757812 29.484375 1.757812 29.308594 C 1.757812 28.910156 1.769531 28.910156 2.238281 29.144531 C 2.859375 29.472656 3.796875 29.378906 3.890625 28.992188 C 4.054688 28.359375 3.375 27.878906 2.414062 27.925781 C 1.945312 27.960938 1.734375 28.03125 1.441406 28.3125 C 1.007812 28.710938 0.972656 28.628906 1.21875 27.738281 C 1.546875 26.484375 1.992188 26.0625 2.648438 26.367188 C 3.105469 26.578125 3.175781 26.53125 3.09375 26.050781 C 3.035156 25.640625 3.058594 25.59375 3.574219 25.207031 C 4.125 24.773438 5.367188 23.472656 7.96875 20.566406 C 10.558594 17.660156 12.609375 16.078125 14.554688 15.445312 C 15.070312 15.257812 15.609375 14.859375 15.527344 14.707031 C 15.386719 14.496094 14.460938 14.613281 13.628906 14.941406 Z M 0.703125 28.851562 C 0.703125 28.980469 0.632812 29.085938 0.550781 29.085938 C 0.328125 29.085938 0.234375 28.96875 0.316406 28.78125 C 0.410156 28.535156 0.703125 28.582031 0.703125 28.851562 Z M 0.703125 28.851562 "/>
<path style=" stroke:none;fill-rule:nonzero;fill:rgb(0%,0%,0%);fill-opacity:1;" d="M 12.890625 18.855469 C 12.890625 18.925781 12.949219 19.078125 13.019531 19.21875 C 13.125 19.40625 13.101562 19.5 12.914062 19.699219 C 12.386719 20.273438 12.292969 20.964844 12.691406 21.351562 C 12.84375 21.492188 13.03125 21.785156 13.125 21.996094 C 13.300781 22.429688 13.757812 22.734375 14.285156 22.734375 C 14.542969 22.734375 14.824219 22.582031 15.28125 22.160156 C 15.632812 21.855469 16.160156 21.46875 16.453125 21.292969 C 16.746094 21.117188 16.992188 20.917969 16.992188 20.847656 C 16.992188 20.777344 16.945312 20.753906 16.875 20.789062 C 16.816406 20.824219 16.757812 20.800781 16.757812 20.742188 C 16.757812 20.671875 16.851562 20.613281 16.957031 20.613281 C 17.144531 20.613281 17.144531 20.601562 16.957031 20.414062 C 16.757812 20.214844 16.734375 20.214844 16.371094 20.425781 C 15.351562 21.023438 14.929688 21.199219 14.542969 21.199219 C 13.957031 21.199219 13.863281 21.09375 13.921875 20.519531 C 13.957031 20.109375 14.015625 20.015625 14.167969 20.0625 C 15.09375 20.320312 16.277344 20.203125 16.769531 19.792969 C 17.109375 19.511719 16.980469 19.125 16.488281 18.972656 C 15.949219 18.785156 12.890625 18.691406 12.890625 18.855469 Z M 14.707031 22.019531 C 14.671875 22.078125 14.589844 22.136719 14.519531 22.136719 C 14.460938 22.136719 14.414062 22.078125 14.414062 22.019531 C 14.414062 21.949219 14.496094 21.902344 14.601562 21.902344 C 14.695312 21.902344 14.742188 21.949219 14.707031 22.019531 Z M 14.707031 22.019531 "/>
<path style=" stroke:none;fill-rule:nonzero;fill:rgb(0%,0%,0%);fill-opacity:1;" d="M 68.730469 23.332031 C 64.21875 23.8125 58.605469 25.171875 50.859375 27.644531 C 48.140625 28.511719 40.78125 31.078125 40.617188 31.21875 C 40.558594 31.265625 40.699219 31.417969 40.910156 31.558594 C 41.542969 31.945312 42.328125 31.828125 44.003906 31.101562 C 49.230469 28.839844 55.160156 27.082031 64.628906 25.007812 L 67.207031 24.433594 L 72.246094 24.433594 C 76.21875 24.433594 77.71875 24.480469 79.335938 24.644531 C 84.972656 25.230469 89.800781 26.226562 94.511719 27.808594 C 98.167969 29.015625 101.671875 30.960938 104.882812 33.550781 C 106.546875 34.898438 109.617188 38.015625 111.046875 39.808594 C 112.910156 42.164062 114.949219 45.246094 116.132812 47.554688 C 116.519531 48.304688 116.753906 48.515625 117.175781 48.515625 C 117.902344 48.515625 117.351562 46.570312 116.085938 44.660156 C 112.335938 39.023438 111.574219 38.039062 109.160156 35.613281 C 105.292969 31.757812 100.546875 28.710938 95.285156 26.71875 C 93.632812 26.097656 90.738281 25.265625 89.191406 24.972656 C 86.355469 24.433594 79.640625 23.554688 76.652344 23.320312 C 74.8125 23.179688 70.089844 23.191406 68.730469 23.332031 Z M 68.730469 23.332031 "/>
<path style=" stroke:none;fill-rule:nonzero;fill:rgb(0%,0%,0%);fill-opacity:1;" d="M 80.097656 34.59375 C 76.453125 35.050781 73.136719 36.339844 70.253906 38.390625 C 68.15625 39.890625 67.640625 40.359375 66.925781 41.378906 C 65.0625 44.097656 64.40625 46.523438 63.808594 52.933594 C 63.550781 55.640625 63.515625 55.863281 63.339844 55.699219 C 63.222656 55.605469 63.011719 55.710938 62.496094 56.15625 C 61.582031 56.929688 60.550781 58.03125 60.304688 58.523438 L 60.105469 58.910156 L 60.375 58.828125 C 60.972656 58.640625 61.746094 58.089844 62.566406 57.257812 L 63.433594 56.378906 L 63.351562 56.871094 C 63.316406 57.128906 63.316406 57.351562 63.375 57.351562 C 63.503906 57.351562 64.265625 56.320312 64.570312 55.710938 C 65.167969 54.527344 65.34375 53.332031 65.507812 49.347656 C 65.648438 45.773438 65.882812 44.964844 67.429688 42.691406 C 69.679688 39.375 73.558594 36.878906 77.953125 35.90625 C 78.644531 35.753906 79.699219 35.648438 80.894531 35.601562 C 81.902344 35.566406 82.734375 35.484375 82.734375 35.425781 C 82.734375 35.179688 82.476562 34.851562 82.148438 34.6875 C 81.832031 34.523438 80.964844 34.476562 80.097656 34.59375 Z M 80.097656 34.59375 "/>
<path style=" stroke:none;fill-rule:nonzero;fill:rgb(0%,0%,0%);fill-opacity:1;" d="M 115.488281 49.394531 L 115.136719 49.546875 L 115.78125 49.78125 C 116.132812 49.910156 116.613281 50.0625 116.835938 50.109375 C 118.804688 50.53125 120.679688 52.886719 121.921875 56.507812 C 123.316406 60.550781 124.054688 65.683594 123.761719 69.328125 C 123.621094 71.074219 123.539062 71.554688 122.53125 76.792969 C 122.238281 78.316406 121.921875 80.226562 121.816406 81.023438 C 121.488281 83.742188 121.652344 87.386719 122.15625 88.136719 C 122.25 88.289062 122.367188 88.746094 122.402344 89.167969 C 122.613281 91.148438 123.328125 93.292969 124.558594 95.683594 C 126.984375 100.359375 129.445312 102.960938 132.597656 104.179688 C 135.246094 105.1875 137.496094 105.539062 143.0625 105.820312 C 145.101562 105.914062 147.375 106.054688 148.089844 106.125 C 149.882812 106.300781 150.480469 106.136719 149.625 105.679688 C 149.203125 105.457031 144.796875 104.847656 138.339844 104.109375 C 133.640625 103.570312 133.429688 103.511719 131.625 102.386719 C 130.394531 101.625 128.449219 99.65625 127.523438 98.226562 C 126.105469 96.046875 124.78125 93.09375 123.878906 90.035156 C 123.609375 89.132812 123.234375 87.949219 123.046875 87.410156 C 122.414062 85.640625 122.53125 84.410156 124.160156 75.023438 C 124.945312 70.582031 125.074219 68.648438 124.863281 65.367188 C 124.488281 59.71875 123.925781 57 122.589844 54.234375 C 121.699219 52.40625 120.667969 51.199219 119.144531 50.226562 C 118.828125 50.027344 118.816406 50.027344 118.652344 50.238281 C 118.488281 50.449219 118.488281 50.449219 118.476562 50.144531 C 118.476562 49.851562 118.40625 49.804688 117.527344 49.523438 C 116.425781 49.183594 116.285156 49.160156 116.484375 49.40625 C 116.613281 49.558594 116.578125 49.582031 116.332031 49.582031 C 116.167969 49.582031 115.980469 49.511719 115.933594 49.417969 C 115.851562 49.277344 115.78125 49.277344 115.488281 49.394531 Z M 115.488281 49.394531 "/>
<path style=" stroke:none;fill-rule:nonzero;fill:rgb(0%,0%,0%);fill-opacity:1;" d="M 39.246094 54.375 C 38.53125 55.664062 38.320312 57.1875 38.320312 61.019531 C 38.320312 64.441406 38.203125 65.179688 37.300781 67.300781 C 35.578125 71.378906 34.664062 74.507812 34.277344 77.613281 C 33.972656 80.085938 34.054688 81.714844 34.605469 84.820312 C 34.769531 85.722656 35.027344 86.097656 35.320312 85.851562 C 35.472656 85.734375 35.507812 85.359375 35.507812 83.566406 C 35.507812 79.863281 35.753906 75.902344 36.105469 73.957031 C 36.46875 71.941406 36.726562 71.167969 37.628906 69.421875 C 38.953125 66.867188 39.46875 64.722656 39.644531 61.160156 C 39.65625 60.820312 39.691406 60.527344 39.726562 60.527344 C 39.761719 60.527344 39.890625 60.726562 40.007812 60.949219 C 40.324219 61.535156 42.574219 63.691406 43.59375 64.382812 C 44.90625 65.261719 45.914062 65.742188 48.105469 66.492188 C 49.207031 66.855469 50.109375 67.171875 50.121094 67.183594 C 50.132812 67.183594 50.039062 67.417969 49.910156 67.699219 C 49.769531 67.96875 49.640625 68.496094 49.605469 68.859375 C 49.523438 69.773438 49.851562 72.339844 50.144531 73.148438 C 50.554688 74.226562 51.351562 75.550781 51.632812 75.585938 C 52.019531 75.644531 52.054688 75.234375 51.738281 73.910156 C 51.152344 71.390625 50.964844 70.277344 50.964844 69.140625 C 50.964844 68.519531 51.011719 67.875 51.070312 67.710938 C 51.1875 67.417969 51.222656 67.40625 51.902344 67.476562 C 52.6875 67.546875 52.96875 67.464844 52.96875 67.136719 C 52.96875 66.761719 52.441406 66.421875 51.492188 66.1875 C 47.835938 65.296875 44.707031 63.867188 42.925781 62.25 C 41.578125 61.042969 40.921875 59.835938 40.582031 57.960938 L 40.394531 56.988281 L 40.066406 57.304688 L 39.726562 57.632812 L 39.714844 56.460938 C 39.703125 55.828125 39.667969 54.960938 39.621094 54.550781 L 39.550781 53.824219 Z M 39.246094 54.375 "/>
<path style=" stroke:none;fill-rule:nonzero;fill:rgb(0%,0%,0%);fill-opacity:1;" d="M 55.757812 60.714844 C 55.253906 61.042969 55.160156 61.324219 54.914062 63.023438 C 54.714844 64.417969 54.796875 65.050781 55.207031 65.179688 C 55.875 65.402344 56.355469 64.160156 56.449219 61.980469 C 56.53125 60.222656 56.519531 60.210938 55.757812 60.714844 Z M 55.757812 60.714844 "/>
<path style=" stroke:none;fill-rule:nonzero;fill:rgb(0%,0%,0%);fill-opacity:1;" d="M 65.753906 64.464844 C 65.542969 64.546875 65.296875 64.699219 65.203125 64.828125 C 65.003906 65.097656 64.992188 65.765625 65.179688 66.105469 C 65.285156 66.292969 65.332031 67.148438 65.34375 69.070312 C 65.355469 72.363281 65.636719 74.367188 66.667969 78.1875 C 68.71875 85.839844 69.023438 87.117188 69.257812 89.273438 C 69.328125 89.882812 69.398438 90.925781 69.410156 91.605469 C 69.433594 92.707031 69.410156 92.824219 69.199219 92.941406 C 68.460938 93.351562 67.570312 94.898438 66.714844 97.277344 C 65.882812 99.585938 65.625 101.296875 65.90625 102.726562 C 66.082031 103.628906 66.082031 103.652344 65.847656 103.886719 C 65.601562 104.132812 65.601562 104.226562 65.8125 105.070312 C 65.847656 105.246094 65.847656 105.480469 65.8125 105.597656 C 65.742188 105.773438 65.695312 105.75 65.519531 105.445312 C 65.214844 104.953125 64.710938 103.359375 64.558594 102.398438 C 64.347656 101.039062 64.417969 98.273438 64.746094 95.332031 C 64.910156 93.84375 65.074219 91.933594 65.109375 91.089844 L 65.167969 89.566406 L 64.558594 90.210938 C 63.1875 91.664062 62.90625 93.351562 63.457031 96.925781 C 63.679688 98.332031 63.679688 100.324219 63.46875 101.132812 C 63.375 101.472656 63.164062 102 63 102.292969 C 62.578125 103.042969 62.507812 103.605469 62.742188 104.320312 C 63.105469 105.410156 64.160156 106.371094 65.917969 107.191406 C 66.925781 107.671875 67.546875 107.753906 67.664062 107.449219 C 67.757812 107.203125 67.664062 107.074219 67.21875 106.804688 L 66.855469 106.582031 L 67.230469 106.582031 C 67.839844 106.582031 67.992188 106.042969 67.523438 105.480469 C 67.359375 105.292969 67.382812 105.28125 67.886719 105.28125 C 68.179688 105.28125 68.554688 105.234375 68.71875 105.175781 C 68.976562 105.070312 69.023438 105.09375 69.128906 105.410156 C 69.480469 106.429688 69.84375 104.90625 70.3125 100.453125 C 70.652344 97.160156 70.734375 93.574219 70.546875 90.445312 C 70.371094 87.65625 70.148438 86.261719 69.609375 84.328125 C 67.546875 76.980469 66.328125 70.042969 66.328125 65.636719 C 66.328125 64.96875 66.292969 64.40625 66.246094 64.382812 C 66.1875 64.359375 65.976562 64.394531 65.753906 64.464844 Z M 69.257812 96.667969 C 69.1875 97.675781 69.09375 99.773438 69.058594 101.308594 L 68.988281 104.109375 L 68.390625 104.109375 C 68.050781 104.109375 67.710938 104.179688 67.628906 104.25 C 67.5 104.378906 67.464844 104.367188 67.417969 104.25 C 67.347656 104.074219 67.078125 103.792969 66.84375 103.664062 C 66.691406 103.582031 66.726562 103.230469 67.078125 101.15625 C 67.582031 98.191406 67.921875 96.984375 68.707031 95.390625 C 69.433594 93.914062 69.457031 93.960938 69.257812 96.667969 Z M 66.738281 106.558594 C 66.703125 106.59375 66.609375 106.558594 66.527344 106.476562 C 66.421875 106.359375 66.433594 106.347656 66.597656 106.417969 C 66.714844 106.453125 66.773438 106.523438 66.738281 106.558594 Z M 66.738281 106.558594 "/>
<path style=" stroke:none;fill-rule:nonzero;fill:rgb(0%,0%,0%);fill-opacity:1;" d="M 55.546875 66.421875 C 55.417969 66.550781 55.3125 66.761719 55.3125 66.890625 C 55.3125 67.019531 55.230469 67.125 55.136719 67.125 C 54.820312 67.125 54.046875 67.957031 53.824219 68.519531 C 53.519531 69.316406 53.554688 71.132812 53.90625 72.304688 C 54.046875 72.796875 54.1875 73.324219 54.210938 73.488281 C 54.269531 73.804688 53.988281 74.167969 51.832031 76.523438 C 49.464844 79.125 48.539062 80.941406 48.65625 82.792969 C 48.703125 83.636719 48.890625 83.625 49.324219 82.734375 L 49.664062 82.03125 L 49.675781 82.675781 C 49.6875 83.730469 49.476562 84.714844 48.808594 86.742188 C 48.058594 88.992188 47.929688 89.882812 48.210938 91.066406 C 48.316406 91.523438 48.398438 92.203125 48.398438 92.601562 L 48.398438 93.328125 L 48.632812 92.941406 C 48.773438 92.71875 48.960938 92.261719 49.078125 91.921875 C 49.253906 91.347656 49.3125 91.289062 49.546875 91.347656 C 50.109375 91.5 50.71875 90.714844 50.917969 89.589844 L 51 89.144531 L 50.320312 89.554688 C 49.933594 89.777344 49.617188 89.941406 49.59375 89.917969 C 49.570312 89.894531 49.710938 89.097656 49.910156 88.125 C 50.625 84.585938 50.660156 83.109375 50.074219 82.242188 L 49.769531 81.785156 L 50.226562 80.917969 C 50.871094 79.675781 52.59375 77.050781 53.707031 75.632812 L 54.644531 74.414062 L 55.101562 75.246094 C 55.347656 75.703125 55.828125 76.371094 56.179688 76.746094 C 56.730469 77.34375 56.835938 77.414062 57 77.273438 C 57.292969 77.015625 57.234375 76.804688 56.554688 75.351562 C 55.722656 73.582031 55.535156 73.113281 55.675781 73.195312 C 55.734375 73.242188 55.910156 73.523438 56.0625 73.816406 C 56.367188 74.425781 56.894531 75.023438 57.140625 75.023438 C 57.222656 75.023438 57.351562 74.917969 57.421875 74.789062 C 57.515625 74.613281 57.398438 74.167969 56.882812 72.773438 C 56.167969 70.769531 55.898438 69.773438 55.898438 69.035156 C 55.898438 68.765625 55.851562 68.542969 55.792969 68.542969 C 55.734375 68.542969 55.464844 68.789062 55.207031 69.082031 L 54.726562 69.632812 L 54.726562 69.246094 C 54.726562 68.683594 55.054688 68.085938 55.558594 67.757812 C 55.945312 67.488281 56.039062 67.476562 56.460938 67.582031 C 57.234375 67.804688 57.492188 68.097656 57.574219 68.800781 C 57.609375 69.140625 57.773438 70.042969 57.949219 70.816406 C 58.253906 72.175781 58.253906 72.222656 58.054688 72.703125 C 57.796875 73.347656 57.679688 75.691406 57.890625 76.195312 C 58.042969 76.570312 58.523438 76.78125 58.722656 76.582031 C 58.792969 76.511719 58.933594 76.160156 59.050781 75.796875 L 59.261719 75.117188 L 59.472656 75.691406 C 59.589844 75.996094 60.070312 77.0625 60.539062 78.070312 L 61.40625 79.875 L 61.289062 81.023438 C 61.125 82.535156 60.914062 83.355469 60.363281 84.503906 C 59.519531 86.25 58.195312 87.515625 56.601562 88.101562 C 55.804688 88.394531 55.523438 88.628906 55.792969 88.804688 C 56.238281 89.097656 57.1875 88.757812 57.1875 88.324219 C 57.1875 88.253906 57.246094 88.207031 57.304688 88.207031 C 57.375 88.207031 57.421875 88.289062 57.421875 88.382812 C 57.421875 88.535156 57.46875 88.546875 57.691406 88.429688 C 58.324219 88.101562 59.53125 87.246094 59.472656 87.152344 C 59.4375 87.105469 59.554688 87.023438 59.707031 86.988281 C 59.871094 86.941406 60.269531 86.625 60.585938 86.285156 L 61.171875 85.675781 L 61.171875 86.449219 C 61.171875 87.410156 61.347656 87.925781 62.132812 89.296875 C 62.753906 90.386719 62.859375 90.492188 63.257812 90.421875 C 63.492188 90.386719 63.492188 90.375 63.222656 89.707031 C 63.070312 89.34375 62.90625 88.910156 62.871094 88.78125 L 62.789062 88.546875 L 63.257812 88.78125 C 63.667969 88.992188 63.75 88.992188 64.042969 88.839844 C 64.21875 88.746094 64.429688 88.675781 64.511719 88.675781 C 64.792969 88.675781 65.273438 88.195312 65.273438 87.902344 C 65.273438 87.65625 65.320312 87.621094 65.507812 87.679688 C 65.671875 87.726562 65.835938 87.65625 66.046875 87.445312 C 66.304688 87.1875 66.339844 87.058594 66.292969 86.71875 L 66.222656 86.285156 L 66.65625 86.707031 C 67.40625 87.421875 67.839844 87.667969 68.027344 87.503906 C 68.34375 87.234375 68.203125 86.929688 67.207031 85.675781 C 65.859375 83.988281 64.617188 82.335938 63.867188 81.199219 C 63.515625 80.683594 63.011719 79.980469 62.730469 79.640625 C 62.144531 78.902344 61.429688 77.53125 61.078125 76.429688 C 60.9375 76.007812 60.609375 74.789062 60.351562 73.722656 C 59.542969 70.429688 58.945312 68.777344 58.570312 68.777344 C 58.40625 68.777344 58.371094 68.71875 58.429688 68.496094 C 58.476562 68.273438 58.359375 68.085938 57.832031 67.488281 C 57.128906 66.738281 56.953125 66.632812 56.953125 66.972656 C 56.941406 67.113281 56.882812 67.066406 56.765625 66.832031 C 56.414062 66.164062 55.957031 66.011719 55.546875 66.421875 Z M 64.558594 84.550781 C 65.027344 85.160156 65.273438 85.558594 65.179688 85.59375 C 65.097656 85.617188 64.957031 85.792969 64.851562 85.992188 C 64.699219 86.285156 64.640625 86.308594 64.488281 86.191406 C 64.335938 86.0625 64.253906 86.097656 63.972656 86.414062 C 63.785156 86.625 63.574219 86.777344 63.515625 86.742188 C 63.328125 86.613281 62.8125 87.046875 62.648438 87.433594 C 62.496094 87.785156 62.496094 87.773438 62.34375 86.765625 C 62.191406 85.757812 62.25 84.796875 62.53125 83.730469 C 62.613281 83.4375 62.613281 83.4375 62.367188 83.648438 C 62.132812 83.859375 62.132812 83.859375 62.25 83.355469 C 62.308594 83.074219 62.34375 82.5 62.308594 82.078125 L 62.261719 81.292969 L 63.023438 82.429688 C 63.445312 83.050781 64.136719 84 64.558594 84.550781 Z M 64.558594 84.550781 "/>
<path style=" stroke:none;fill-rule:nonzero;fill:rgb(0%,0%,0%);fill-opacity:1;" d="M 30.984375 70.839844 C 30.539062 71.53125 29.953125 75.058594 29.765625 78.210938 C 29.648438 80.238281 29.660156 80.460938 29.871094 81.386719 C 30 81.925781 30.292969 83.308594 30.515625 84.445312 C 30.738281 85.582031 31.007812 86.847656 31.101562 87.246094 L 31.265625 87.972656 L 30.867188 88.640625 C 30.28125 89.625 30.1875 90.457031 30.621094 90.726562 C 30.878906 90.890625 31.148438 90.738281 31.464844 90.234375 C 31.59375 90.035156 31.722656 89.871094 31.757812 89.871094 C 31.792969 89.859375 32.027344 90.398438 32.273438 91.066406 C 32.789062 92.414062 33.246094 92.976562 33.9375 93.105469 C 34.160156 93.140625 34.371094 93.152344 34.40625 93.117188 C 34.441406 93.09375 34.253906 92.542969 34.007812 91.910156 C 33.152344 89.742188 32.367188 87.117188 32.449219 86.695312 C 32.460938 86.589844 32.414062 86.484375 32.34375 86.4375 C 32.179688 86.332031 31.617188 83.578125 31.335938 81.515625 C 31.066406 79.59375 31.042969 74.613281 31.277344 72.726562 C 31.523438 70.816406 31.417969 70.171875 30.984375 70.839844 Z M 30.984375 70.839844 "/>
<path style=" stroke:none;fill-rule:nonzero;fill:rgb(0%,0%,0%);fill-opacity:1;" d="M 85.265625 75.691406 C 84.902344 76.242188 82.945312 80.625 82.03125 82.910156 C 81.234375 84.914062 80.613281 86.847656 80.226562 88.441406 L 79.945312 89.589844 L 80.050781 96.527344 C 80.109375 100.335938 80.191406 103.699219 80.226562 103.992188 C 80.261719 104.285156 80.367188 105.199219 80.460938 106.054688 C 80.683594 107.953125 81.222656 110.589844 81.492188 111 C 81.9375 111.667969 82.054688 110.988281 81.878906 108.726562 C 81.796875 107.566406 81.796875 107.003906 81.878906 106.957031 C 82.675781 106.429688 82.757812 101.8125 82.007812 99.949219 L 81.878906 99.609375 L 81.726562 99.878906 C 81.597656 100.136719 81.585938 100.125 81.515625 99.632812 C 81.480469 99.339844 81.421875 98.332031 81.386719 97.394531 C 81.363281 96.457031 81.257812 95.308594 81.164062 94.863281 C 81.070312 94.40625 80.964844 93.65625 80.917969 93.210938 L 80.847656 92.390625 L 81.222656 92.859375 C 82.3125 94.21875 84 95.53125 85.722656 96.386719 C 86.238281 96.632812 86.683594 96.855469 86.707031 96.878906 C 86.730469 96.902344 86.636719 97.148438 86.496094 97.441406 C 86.355469 97.722656 86.179688 98.308594 86.121094 98.753906 C 85.933594 99.914062 86.109375 101.015625 87.257812 105.996094 C 87.820312 108.46875 87.644531 110.097656 86.753906 110.625 C 86.308594 110.882812 85.183594 110.917969 84.1875 110.707031 C 83.460938 110.554688 82.957031 110.707031 83.203125 111 C 83.71875 111.621094 86.191406 111.820312 87.222656 111.304688 C 88.289062 110.789062 88.710938 109.804688 88.710938 107.8125 C 88.710938 106.734375 88.6875 106.546875 87.949219 102.574219 C 87.527344 100.324219 87.316406 98.0625 87.457031 97.488281 L 87.539062 97.195312 L 88.488281 97.464844 C 90.855469 98.15625 92.988281 98.25 94.628906 97.734375 C 97.652344 96.796875 99.949219 94.652344 102.175781 90.65625 C 103.652344 88.007812 105.832031 83.601562 105.761719 83.378906 C 105.667969 83.097656 105.386719 82.992188 105.117188 83.144531 C 104.71875 83.355469 104.34375 83.976562 102.949219 86.800781 C 101.460938 89.789062 101.191406 90.28125 100.546875 91.265625 C 100.3125 91.628906 99.914062 92.296875 99.679688 92.765625 C 98.789062 94.488281 97.089844 95.90625 95.226562 96.539062 C 93.457031 97.113281 90.550781 96.914062 88.125 96.035156 C 86.273438 95.367188 84.152344 94.125 82.523438 92.753906 C 80.753906 91.277344 80.929688 91.535156 81.011719 90.609375 C 81.175781 88.910156 81.867188 86.566406 83.179688 83.320312 C 85.066406 78.621094 85.582031 77.097656 85.722656 75.925781 C 85.828125 75.128906 85.6875 75.058594 85.265625 75.691406 Z M 85.265625 75.691406 "/>
<path style=" stroke:none;fill-rule:nonzero;fill:rgb(0%,0%,0%);fill-opacity:1;" d="M 54.316406 81.667969 C 53.179688 82.230469 52.230469 83.027344 52.710938 83.027344 C 52.921875 83.027344 52.96875 83.097656 52.96875 83.425781 C 52.96875 84.234375 53.953125 84.949219 54.679688 84.679688 C 54.867188 84.609375 55.113281 84.457031 55.242188 84.351562 C 55.582031 84.023438 56.847656 82.078125 56.765625 81.960938 C 56.671875 81.796875 56.097656 82.136719 55.429688 82.734375 C 54.714844 83.367188 54.375 83.425781 54.375 82.910156 C 54.375 82.59375 54.480469 82.511719 55.640625 81.855469 L 56.894531 81.140625 L 56.132812 81.152344 C 55.476562 81.152344 55.21875 81.222656 54.316406 81.667969 Z M 54.316406 81.667969 "/>
<path style=" stroke:none;fill-rule:nonzero;fill:rgb(0%,0%,0%);fill-opacity:1;" d="M 107.929688 81.410156 C 107.929688 81.527344 107.742188 81.609375 107.34375 81.65625 C 106.5 81.773438 106.183594 81.914062 106.03125 82.277344 C 105.902344 82.546875 105.914062 82.617188 106.160156 82.804688 C 106.5 83.085938 106.921875 83.085938 107.542969 82.792969 L 108.035156 82.570312 L 108.128906 83.121094 C 108.222656 83.695312 108.234375 86.226562 108.152344 92.039062 C 108.105469 95.671875 108.152344 96.105469 108.75 97.828125 C 109.816406 100.898438 114.457031 106.113281 118.40625 108.691406 C 119.625 109.476562 121.898438 110.601562 123.234375 111.046875 C 124.804688 111.5625 126.527344 111.878906 128.4375 111.996094 C 130.089844 112.101562 131.953125 112.289062 134.765625 112.640625 C 138.304688 113.097656 139.769531 113.214844 142.324219 113.226562 C 143.964844 113.226562 145.359375 113.179688 145.898438 113.085938 C 148.476562 112.652344 149.871094 112.183594 149.414062 111.878906 C 149.191406 111.738281 148.558594 111.738281 147.949219 111.878906 C 147.691406 111.9375 146.671875 112.042969 145.6875 112.113281 C 143.613281 112.253906 141.339844 112.148438 137.167969 111.691406 C 133.359375 111.28125 132.304688 111.1875 129.832031 111.070312 C 128.214844 110.988281 127.300781 110.882812 126.269531 110.648438 C 120.949219 109.441406 116.296875 106.253906 111.984375 100.828125 C 110.542969 99.023438 110.132812 98.261719 109.722656 96.703125 C 109.464844 95.707031 109.417969 95.308594 109.417969 93.503906 C 109.40625 92.378906 109.441406 90.09375 109.5 88.441406 C 109.59375 85.652344 109.582031 85.359375 109.359375 84.28125 C 109.207031 83.554688 108.949219 82.792969 108.667969 82.230469 C 108.246094 81.375 107.929688 81.035156 107.929688 81.410156 Z M 107.929688 81.410156 "/>
<path style=" stroke:none;fill-rule:nonzero;fill:rgb(0%,0%,0%);fill-opacity:1;" d="M 34.921875 86.589844 C 34.5 86.871094 34.019531 87.574219 34.148438 87.703125 C 34.195312 87.75 34.511719 87.644531 34.875 87.46875 C 35.8125 87 36.011719 87.035156 36.304688 87.703125 C 36.433594 88.019531 36.632812 88.816406 36.738281 89.507812 C 36.984375 91.054688 37.3125 91.792969 37.757812 91.839844 C 38.179688 91.886719 38.320312 91.546875 38.320312 90.46875 C 38.308594 88.6875 37.699219 87.09375 36.84375 86.589844 C 36.234375 86.238281 35.4375 86.238281 34.921875 86.589844 Z M 34.921875 86.589844 "/>
<path style=" stroke:none;fill-rule:nonzero;fill:rgb(0%,0%,0%);fill-opacity:1;" d="M 54.808594 87.351562 C 54.644531 87.667969 54.328125 88.429688 54.105469 89.050781 C 53.882812 89.683594 53.578125 90.351562 53.449219 90.527344 C 53.308594 90.703125 52.6875 91.113281 52.054688 91.453125 C 51.082031 91.957031 50.917969 92.074219 50.917969 92.332031 C 50.917969 92.824219 51.667969 92.71875 52.78125 92.085938 C 54.457031 91.136719 55.523438 89.753906 55.582031 88.488281 C 55.605469 87.902344 55.347656 86.800781 55.195312 86.800781 C 55.148438 86.800781 54.984375 87.046875 54.808594 87.351562 Z M 54.808594 87.351562 "/>
<path style=" stroke:none;fill-rule:nonzero;fill:rgb(0%,0%,0%);fill-opacity:1;" d="M 36.363281 92.191406 C 36.316406 92.285156 36.351562 92.578125 36.433594 92.847656 C 36.621094 93.46875 36.621094 93.574219 36.398438 94.21875 C 36.292969 94.511719 36.152344 94.992188 36.070312 95.296875 C 35.953125 95.742188 35.90625 95.8125 35.824219 95.648438 C 35.765625 95.542969 35.484375 95.0625 35.191406 94.605469 L 34.675781 93.738281 L 34.230469 93.984375 C 33.984375 94.101562 33.75 94.3125 33.714844 94.441406 C 33.644531 94.710938 34.289062 96.386719 34.699219 96.972656 C 34.980469 97.394531 35.484375 97.746094 35.777344 97.746094 C 35.882812 97.746094 36.035156 97.652344 36.117188 97.535156 C 36.351562 97.230469 36.679688 97.253906 36.679688 97.570312 C 36.679688 98.144531 37.324219 98.226562 37.675781 97.699219 C 37.910156 97.359375 37.792969 96.785156 37.441406 96.457031 L 37.171875 96.199219 L 37.40625 95.777344 C 37.558594 95.519531 37.675781 95.085938 37.710938 94.558594 L 37.769531 93.726562 L 37.96875 94.183594 C 38.296875 94.921875 39.222656 95.203125 39.890625 94.769531 C 40.546875 94.335938 40.125 93.65625 38.964844 93.316406 C 38.4375 93.164062 38.34375 93.09375 38.285156 92.800781 C 38.191406 92.390625 37.78125 92.15625 36.996094 92.0625 C 36.550781 92.015625 36.410156 92.050781 36.363281 92.191406 Z M 36.363281 92.191406 "/>
<path style=" stroke:none;fill-rule:nonzero;fill:rgb(0%,0%,0%);fill-opacity:1;" d="M 61.171875 104.296875 C 60.222656 104.472656 57.984375 104.777344 54.726562 105.164062 C 49.78125 105.773438 46.875 106.523438 44.414062 107.835938 C 43.171875 108.515625 42.515625 108.960938 41.8125 109.617188 C 41.332031 110.074219 41.121094 110.167969 40.113281 110.425781 C 39.480469 110.589844 38.917969 110.765625 38.859375 110.824219 C 38.800781 110.882812 38.988281 110.988281 39.269531 111.058594 C 40.03125 111.269531 41.390625 111.128906 43.417969 110.636719 C 47.039062 109.757812 50.367188 109.289062 55.136719 108.996094 C 64.300781 108.433594 64.570312 108.410156 64.570312 108.105469 C 64.570312 107.753906 63.867188 107.695312 60.292969 107.707031 C 56.601562 107.707031 54.691406 107.824219 51.445312 108.246094 C 48.914062 108.5625 45.128906 109.207031 43.59375 109.582031 C 43.429688 109.628906 43.617188 109.476562 44.003906 109.265625 C 44.390625 109.042969 45.234375 108.5625 45.878906 108.199219 C 47.414062 107.320312 48.609375 106.933594 50.15625 106.804688 C 53.753906 106.488281 60.175781 105.539062 61.875 105.070312 C 62.496094 104.90625 62.648438 104.824219 62.671875 104.601562 C 62.707031 104.414062 62.625 104.308594 62.402344 104.226562 C 62.238281 104.167969 62.085938 104.109375 62.074219 104.121094 C 62.0625 104.121094 61.652344 104.203125 61.171875 104.296875 Z M 61.171875 104.296875 "/>
<path style=" stroke:none;fill-rule:nonzero;fill:rgb(0%,0%,0%);fill-opacity:1;" d="M 39.257812 111.5625 C 38.519531 111.9375 38.566406 112.851562 39.339844 113.050781 C 40.066406 113.238281 42.609375 113.625 44.179688 113.789062 C 46.042969 113.988281 52.441406 113.976562 54.726562 113.789062 C 56.847656 113.601562 60.46875 113.214844 62.167969 112.992188 C 64.441406 112.6875 66.84375 112.652344 71.601562 112.886719 C 78.082031 113.179688 81.703125 113.050781 81.878906 112.5 C 81.960938 112.253906 81.105469 112.136719 78.339844 111.996094 C 68.90625 111.527344 62.519531 111.667969 57.1875 112.464844 C 56.308594 112.59375 54.234375 112.734375 52.03125 112.839844 C 46.511719 113.0625 43.757812 112.804688 40.804688 111.808594 C 40.136719 111.585938 39.585938 111.410156 39.574219 111.410156 C 39.5625 111.410156 39.421875 111.480469 39.257812 111.5625 Z M 39.257812 111.5625 "/>
</g>
</svg>
